<svg xmlns="http://www.w3.org/2000/svg" viewBox="0 0 320 300"><defs><linearGradient id="dark" x2="1" y2=".7"><stop stop-color="#707b68"/><stop offset=".45" stop-color="#465342"/><stop offset="1" stop-color="#28352c"/></linearGradient><linearGradient id="sand" x2="1" y2=".3"><stop stop-color="#e9dec5"/><stop offset=".5" stop-color="#d8c9a7"/><stop offset="1" stop-color="#bbaa88"/></linearGradient><linearGradient id="sage" x2="1" y2=".2"><stop stop-color="#a0ad8f"/><stop offset=".55" stop-color="#7c9070"/><stop offset="1" stop-color="#5a7054"/></linearGradient><pattern id="mesh" width="5" height="5" patternUnits="userSpaceOnUse"><rect width="5" height="5" fill="#56664e"/><circle cx="2" cy="2" r="1" fill="#89927d"/></pattern><filter id="shadow" x="-50%" y="-100%" width="200%" height="300%"><feGaussianBlur stdDeviation="7"/></filter></defs><ellipse cx="164" cy="271" rx="83" ry="9" fill="#65725c" opacity=".17" filter="url(#shadow)"/><rect x="47" y="104" width="231" height="140" rx="15" fill="#333b35"/><rect x="47" y="104" width="231" height="40" rx="10" fill="#b6b7a9"/><path d="M137 104l16-29h58l17 29" fill="#b6b7a9"/><rect x="74" y="91" width="39" height="13" rx="4" fill="#414a40"/><circle cx="182" cy="173" r="65" fill="#252c28"/><circle cx="182" cy="173" r="55" fill="#798075"/><circle cx="182" cy="173" r="47" fill="#252e29"/><circle cx="182" cy="173" r="35" fill="#3b5050"/><circle cx="182" cy="173" r="23" fill="#182f35"/><circle cx="171" cy="160" r="10" fill="#849d98" opacity=".7"/><rect x="64" y="153" width="37" height="71" rx="6" fill="url(#mesh)"/><text x="257" y="127" text-anchor="end" fill="#374437" font-size="11" font-family="serif">Focal</text></svg>