<svg xmlns="http://www.w3.org/2000/svg" viewBox="0 0 320 300"><defs><linearGradient id="dark" x2="1" y2=".7"><stop stop-color="#707b68"/><stop offset=".45" stop-color="#465342"/><stop offset="1" stop-color="#28352c"/></linearGradient><linearGradient id="sand" x2="1" y2=".3"><stop stop-color="#e9dec5"/><stop offset=".5" stop-color="#d8c9a7"/><stop offset="1" stop-color="#bbaa88"/></linearGradient><linearGradient id="sage" x2="1" y2=".2"><stop stop-color="#a0ad8f"/><stop offset=".55" stop-color="#7c9070"/><stop offset="1" stop-color="#5a7054"/></linearGradient><pattern id="mesh" width="5" height="5" patternUnits="userSpaceOnUse"><rect width="5" height="5" fill="#56664e"/><circle cx="2" cy="2" r="1" fill="#89927d"/></pattern><filter id="shadow" x="-50%" y="-100%" width="200%" height="300%"><feGaussianBlur stdDeviation="7"/></filter></defs><ellipse cx="164" cy="271" rx="83" ry="9" fill="#65725c" opacity=".17" filter="url(#shadow)"/><path d="M157 209v49m0-10-53 25m53-25 55 25m-55-25v33" stroke="#454e45" stroke-width="8"/><circle cx="103" cy="273" r="8" fill="#333e35"/><circle cx="213" cy="273" r="8" fill="#333e35"/><circle cx="157" cy="280" r="7" fill="#333e35"/><path d="M98 182V54q1-23 24-23h72q23 0 23 23v128" fill="url(#sage)"/><rect x="108" y="46" width="99" height="115" rx="14" fill="url(#mesh)"/><rect x="103" y="172" width="111" height="28" rx="12" fill="#74846b"/><path d="M91 181v-44h24m114 44v-44h-23" fill="none" stroke="#384b3a" stroke-width="9"/><rect x="102" y="190" width="114" height="15" rx="7" fill="#435a43"/></svg>